<?xml version="1.0" encoding="UTF-8"?>
<!-- Generated by Pixelmator Pro 3.7.1 -->
<svg width="209" height="256" viewBox="0 0 209 256" xmlns="http://www.w3.org/2000/svg">
    <path id="Path" fill="#0147ff" stroke="none" d="M 202.0616 87.270401 C 200.576797 88.422394 174.362411 103.193604 174.362411 136.038406 C 174.362411 174.028793 207.719208 187.468796 208.71759 187.80159 C 208.563995 188.620789 203.418411 206.208008 191.130402 224.128006 C 180.173599 239.897598 168.730408 255.641586 151.322403 255.641586 C 133.914413 255.641586 129.434402 245.529587 109.338402 245.529587 C 89.754402 245.529587 82.791206 255.974411 66.867996 255.974411 C 50.944801 255.974411 39.8344 241.382401 27.059999 223.462402 C 12.2632 202.419205 0.308 169.727997 0.308 138.700806 C 0.308 88.934402 32.666401 62.540802 64.512802 62.540802 C 81.434395 62.540802 95.540001 73.651199 106.164001 73.651199 C 116.276001 73.651199 132.045593 61.875198 151.296799 61.875198 C 158.592804 61.875198 184.807205 62.540802 202.0616 87.270401 Z M 142.157593 40.806396 C 150.119202 31.360001 155.751205 18.252808 155.751205 5.145599 C 155.751205 3.328003 155.597595 1.484802 155.264801 0 C 142.311203 0.486404 126.900002 8.627197 117.607201 19.4048 C 110.311203 27.699203 103.501602 40.806396 103.501602 54.092804 C 103.501602 56.0896 103.834396 58.086395 103.987999 58.726395 C 104.807205 58.880005 106.138397 59.059204 107.469604 59.059204 C 119.092003 59.059204 133.709595 51.276794 142.157593 40.806396 Z"/>
</svg>
