<?xml version="1.0" encoding="UTF-8"?>
<!-- Generated by Pixelmator Pro 3.7.1 -->
<svg width="500" height="500" viewBox="0 0 500 500" xmlns="http://www.w3.org/2000/svg">
    <g id="letterboxd-decal-dots-pos-mono">
        <g id="Dots">
            <g id="Blue">
                <g id="Mask"/>
            </g>
            <g id="Orange">
                <g id="g1"/>
                <path id="Circle" fill="#0147ff" fill-rule="evenodd" stroke="none" d="M 250 500 C 388.071198 500 500 388.071198 500 250 C 500 111.928802 388.071198 0 250 0 C 111.92881 0 0 111.928802 0 250 C 0 388.071198 111.92881 500 250 500 Z M 190.539322 287.06311 C 178.156128 306.84317 156.155594 320 131.078644 320 C 92.375282 320 61 288.659943 61 250 C 61 211.340057 92.375282 180 131.078644 180 C 156.155594 180 178.156128 193.15683 190.539322 212.93689 C 202.922501 193.15683 224.92305 180 250 180 C 275.076935 180 297.077515 193.15683 309.460693 212.93689 C 321.843842 193.15683 343.844421 180 368.921356 180 C 407.624725 180 439 211.340057 439 250 C 439 288.659943 407.624725 320 368.921356 320 C 343.844421 320 321.843842 306.84314 309.460693 287.06311 C 297.077515 306.84314 275.076935 320 250 320 C 224.92305 320 202.922501 306.84317 190.539322 287.06311 Z"/>
            </g>
            <path id="Overlap" fill="#0147ff" fill-rule="evenodd" stroke="none" d="M 190.539322 287.06311 C 183.810486 276.314941 179.921356 263.611145 179.921356 250 C 179.921356 236.388855 183.810486 223.685059 190.539322 212.93689 C 197.268158 223.685059 201.157303 236.388855 201.157303 250 C 201.157303 263.611145 197.268158 276.314941 190.539322 287.06311 L 190.539322 287.06311 Z"/>
            <path id="path2" fill="#0147ff" fill-rule="evenodd" stroke="none" d="M 309.460693 212.93689 C 316.189514 223.685059 320.078644 236.388855 320.078644 250 C 320.078644 263.611145 316.189514 276.314941 309.460693 287.06311 C 302.731842 276.314941 298.842712 263.611145 298.842712 250 C 298.842712 236.388855 302.731842 223.685059 309.460693 212.93689 L 309.460693 212.93689 Z"/>
        </g>
    </g>
</svg>
