<?xml version="1.0" encoding="UTF-8"?>
<!-- Generated by Pixelmator Pro 3.7.1 -->
<svg width="256" height="256" viewBox="0 0 256 256" xmlns="http://www.w3.org/2000/svg">
    <path id="Path" fill="#0147ff" stroke="none" d="M 128 0 C 57.307999 0 0 57.30899 0 128 C 0 198.695999 57.308998 256 128 256 C 198.697006 256 256 198.695999 256 128 C 256 57.313995 198.697006 0.007004 127.998001 0.007004 L 127.999001 0.001007 Z M 186.699005 184.613998 C 184.406006 188.373993 179.483994 189.565994 175.723999 187.257996 C 145.671005 168.901001 107.838997 164.742996 63.284 174.923004 C 58.987713 175.900665 54.711964 173.211761 53.731998 168.916 C 53.258392 166.853363 53.624802 164.687057 54.750404 162.894913 C 55.876007 161.102768 57.66832 159.832031 59.731998 159.363007 C 108.491997 148.223007 150.315002 153.018997 184.054993 173.639008 C 187.815002 175.947006 189.007004 180.854004 186.699005 184.613998 Z M 202.365997 149.761002 C 199.475998 154.455994 193.332001 155.938995 188.639999 153.050003 C 154.233994 131.901993 101.787003 125.777008 61.091999 138.130005 C 55.813999 139.723999 50.240002 136.75 48.638 131.481003 C 47.048 126.203003 50.023998 120.639008 55.292999 119.035004 C 101.778 104.929001 159.567993 111.761993 199.080002 136.042007 C 203.772003 138.932007 205.255005 145.076004 202.365997 149.761993 L 202.365997 149.761002 Z M 203.710999 113.468002 C 162.457001 88.963989 94.393997 86.709991 55.007 98.666 C 48.681999 100.584 41.993 97.013 40.077 90.688004 C 38.16 84.360001 41.727001 77.675995 48.056999 75.752991 C 93.269997 62.027008 168.434006 64.679993 215.929001 92.876007 C 221.630997 96.251999 223.494995 103.600006 220.117004 109.281006 C 216.755005 114.971008 209.386993 116.846008 203.716995 113.468002 L 203.710999 113.468002 Z"/>
</svg>
