<?xml version="1.0" encoding="UTF-8"?>
<!-- Generated by Pixelmator Pro 3.7.1 -->
<svg width="256" height="180" viewBox="0 0 256 180" xmlns="http://www.w3.org/2000/svg">
    <path id="Path" fill="#0147ff" stroke="none" d="M 227.690002 5.417999 C 238.732315 8.406525 247.357956 17.032562 250.345993 28.074997 L 250.345993 28.076004 C 258.800995 62.110001 256.847992 115.862 250.509995 151.210007 C 247.521774 162.252701 238.895691 170.878784 227.852997 173.867004 C 207.988007 179.285004 128.033005 179.285004 128.033005 179.285004 C 128.033005 179.285004 48.077 179.285004 28.211 173.867004 C 17.168688 170.878479 8.543038 162.252441 5.555 151.210007 C -2.95 117.323997 -0.619 63.537994 5.39 28.240005 C 8.377731 17.197174 17.003435 8.570709 28.046 5.582001 C 47.911999 0.164001 127.870003 0 127.870003 0 C 127.870003 0 207.824005 0 227.690002 5.417999 Z M 168.748993 89.641998 L 102.420998 51.223999 L 102.420998 128.059998 L 168.748993 89.641998 Z"/>
</svg>
